<svg width="191" height="102" viewBox="0 0 191 102" fill="none" xmlns="http://www.w3.org/2000/svg">
<path d="M30.7634 54.9263C29.8465 55.7689 28.8156 56.428 27.6757 56.8989C26.5308 57.3747 25.3215 57.6076 24.0378 57.6076C22.6104 57.6076 21.2673 57.3449 19.9985 56.8295C18.7297 56.3091 17.6145 55.5904 16.658 54.6686C15.7014 53.7467 14.9431 52.6613 14.3781 51.4123C13.818 50.1634 13.5355 48.8053 13.5355 47.3383C13.5355 46.4214 13.6495 45.5342 13.8725 44.6768C14.0956 43.8194 14.4128 43.0165 14.8241 42.2681C15.2355 41.5197 15.7361 40.8308 16.3209 40.2013C16.9107 39.5719 17.5649 39.0316 18.2935 38.5856C19.0221 38.1395 19.8101 37.7876 20.6675 37.5398C21.525 37.292 22.4221 37.1631 23.3687 37.1631C24.2311 37.1631 25.0687 37.2771 25.8815 37.5051C26.6943 37.7331 27.4526 38.0553 28.1663 38.4716C28.88 38.8879 29.5343 39.3885 30.1241 39.9684C30.7188 40.5532 31.2243 41.1876 31.6555 41.8815C32.0818 42.5754 32.4138 43.3138 32.6468 44.0969C32.8797 44.88 32.9987 45.6928 32.9987 46.5255C32.9987 47.0657 32.9937 47.5068 32.9739 47.8537C32.959 48.1957 32.8797 48.4683 32.731 48.6715C32.5873 48.8747 32.3444 49.0135 32.0074 49.0928C31.6704 49.1721 31.1748 49.2118 30.5156 49.2118H19.2798C19.3839 49.8759 19.592 50.431 19.9092 50.882C20.2264 51.3281 20.5932 51.6849 21.0095 51.9526C21.4259 52.2202 21.867 52.4085 22.3378 52.5225C22.8037 52.6365 23.2497 52.696 23.6661 52.696C24.0427 52.696 24.4244 52.6563 24.8209 52.577C25.2174 52.4977 25.599 52.3937 25.9707 52.2648C26.3375 52.1359 26.6795 51.9823 26.9868 51.8138C27.294 51.6403 27.5418 51.4619 27.7302 51.2736C27.8987 51.1397 28.0375 51.0357 28.1614 50.9712C28.2803 50.9018 28.4092 50.8721 28.543 50.8721C28.6768 50.8721 28.8156 50.9167 28.9544 51.0109C29.0932 51.105 29.2518 51.2389 29.4302 51.4173L31.0856 53.2907C31.1996 53.4246 31.2739 53.5485 31.3036 53.6575C31.3334 53.7665 31.3482 53.8805 31.3482 53.9945C31.3482 54.2027 31.2888 54.3811 31.1748 54.5348C31.0509 54.6785 30.917 54.8123 30.7634 54.9263ZM23.2547 41.9261C22.8483 41.9261 22.4567 42.0054 22.0751 42.1689C21.6935 42.3325 21.3366 42.5456 21.0046 42.8182C20.6725 43.0908 20.3751 43.3931 20.1075 43.7401C19.8399 44.082 19.6267 44.4339 19.4582 44.7858H27.4328C27.2147 44.3794 26.9768 44.0028 26.7241 43.6608C26.4713 43.3188 26.1789 43.0165 25.8518 42.7538C25.5247 42.4961 25.148 42.2929 24.7267 42.1442C24.3104 42.0004 23.8197 41.9261 23.2547 41.9261Z" fill="#D17818"/>
<path d="M56.6498 56.1406C56.6498 56.319 56.62 56.4875 56.5556 56.6461C56.4912 56.8097 56.3871 56.9336 56.2433 57.0277C56.1293 57.1417 55.9955 57.2161 55.8369 57.2458C55.6783 57.2756 55.5445 57.2954 55.4305 57.2954H52.3577C52.1396 57.2954 51.9611 57.2656 51.8273 57.2111C51.6935 57.1516 51.5845 57.0723 51.5002 56.9683C51.416 56.8642 51.3466 56.7353 51.2871 56.5866C51.2326 56.438 51.1682 56.2744 51.1087 56.096L50.9055 55.3922C50.623 55.6747 50.3058 55.9473 49.944 56.2199C49.5871 56.4925 49.1906 56.7304 48.7594 56.9435C48.3282 57.1566 47.8623 57.3301 47.3717 57.4589C46.8761 57.5878 46.3656 57.6522 45.8352 57.6522C44.8886 57.6522 43.9816 57.5333 43.1143 57.2954C42.2469 57.0575 41.4341 56.7155 40.6808 56.2744C39.9274 55.8333 39.2434 55.303 38.6289 54.6834C38.0143 54.0639 37.4889 53.375 37.0429 52.6167C36.6018 51.8584 36.2598 51.0406 36.0219 50.1584C35.784 49.2811 35.665 48.3642 35.665 47.4027C35.665 45.9555 35.9277 44.6124 36.458 43.3684C36.9884 42.1243 37.712 41.0439 38.6289 40.122C39.5458 39.2002 40.6213 38.4765 41.8603 37.9512C43.0994 37.4258 44.4227 37.1631 45.8402 37.1631C46.4845 37.1631 47.0842 37.2375 47.6443 37.3812C48.2043 37.525 48.7099 37.7232 49.1757 37.976C49.6367 38.2238 50.058 38.5261 50.4297 38.873C50.8063 39.22 51.1335 39.6016 51.411 40.0031L51.862 38.5856C51.9661 38.3279 52.0504 38.1147 52.1198 37.9512C52.1891 37.7926 52.2585 37.6687 52.3378 37.5943C52.4171 37.515 52.5113 37.4655 52.6253 37.4357C52.7393 37.411 52.9028 37.3961 53.111 37.3961H55.4355C55.5495 37.3961 55.6833 37.411 55.8419 37.4456C55.9955 37.4754 56.1343 37.5497 56.2483 37.6637C56.392 37.7777 56.4961 37.9066 56.5605 38.0553C56.625 38.199 56.6547 38.3675 56.6547 38.5558V56.1406H56.6498ZM41.2805 47.4027C41.2805 48.0917 41.3845 48.731 41.6026 49.3307C41.8157 49.9304 42.1181 50.4459 42.5146 50.882C42.9111 51.3182 43.3869 51.6651 43.942 51.9179C44.4971 52.1756 45.1166 52.2995 45.7906 52.2995C46.4895 52.2995 47.1338 52.1706 47.7335 51.9179C48.3332 51.6651 48.8536 51.3182 49.2947 50.882C49.7358 50.4459 50.0827 49.9255 50.3306 49.3307C50.5784 48.731 50.7072 48.0917 50.7072 47.4027C50.7072 46.7386 50.5833 46.1042 50.3306 45.4995C50.0827 44.8949 49.7358 44.3646 49.2947 43.9086C48.8536 43.4526 48.3332 43.0908 47.7335 42.8232C47.1338 42.5605 46.4895 42.4267 45.7906 42.4267C45.1116 42.4267 44.4971 42.5605 43.942 42.8232C43.3869 43.0908 42.9111 43.4526 42.5146 43.9086C42.1181 44.3646 41.8157 44.8949 41.6026 45.4995C41.3845 46.1042 41.2805 46.7386 41.2805 47.4027Z" fill="#D17818"/>
<path d="M63.3605 51.1347C63.643 51.4173 63.9453 51.6551 64.2725 51.8435C64.5996 52.0318 64.9168 52.1904 65.2141 52.3094C65.5165 52.4283 65.7792 52.5175 66.0071 52.5671C66.2351 52.6216 66.3937 52.6464 66.478 52.6464C66.6762 52.6464 66.929 52.6365 67.2363 52.6216C67.5436 52.6067 67.836 52.5572 68.1185 52.4828C68.401 52.4035 68.6389 52.2796 68.8421 52.1012C69.0453 51.9228 69.1444 51.675 69.1444 51.3528C69.1444 51.0604 69.085 50.8324 68.971 50.6589C68.857 50.4855 68.6885 50.3417 68.4704 50.2228C68.2523 50.1038 67.9847 49.9948 67.6675 49.9006C67.3503 49.8065 66.9934 49.6974 66.5969 49.5735C65.348 49.2415 64.3171 48.84 63.5092 48.3741C62.6964 47.9033 62.057 47.3829 61.5812 46.803C61.1054 46.2281 60.7783 45.6036 60.59 44.9395C60.4016 44.2753 60.3075 43.5715 60.3075 42.833C60.3075 41.9707 60.4809 41.1826 60.8229 40.4788C61.1649 39.7701 61.6556 39.1654 62.29 38.6599C62.9244 38.1544 63.6827 37.7628 64.5698 37.4902C65.452 37.2127 66.4383 37.0789 67.5188 37.0789C68.173 37.0789 68.7876 37.1334 69.3625 37.2424C69.9325 37.3515 70.4826 37.5249 70.9981 37.7579C71.5185 37.9908 72.024 38.2931 72.5196 38.6649C73.0153 39.0316 73.5059 39.4727 73.9966 39.9832C74.175 40.1914 74.2642 40.3847 74.2692 40.568C74.2741 40.7514 74.1552 40.9447 73.9173 41.1529C73.5109 41.485 73.1243 41.8121 72.7526 42.1342C72.3858 42.4564 71.9992 42.8182 71.6077 43.2097C71.4838 43.3138 71.3599 43.3782 71.231 43.403C71.1022 43.4278 70.9882 43.4278 70.8742 43.3931C70.7602 43.3634 70.6511 43.3088 70.5471 43.2345C70.443 43.1602 70.3488 43.0759 70.2646 42.9718C69.8978 42.5654 69.4864 42.2928 69.0156 42.154C68.5497 42.0153 68.1086 41.9459 67.7071 41.9459C67.1966 41.9459 66.7902 42.0351 66.4879 42.2135C66.1856 42.3919 66.0468 42.6596 66.0666 43.0263C66.0864 43.2989 66.1905 43.5071 66.3689 43.6558C66.5523 43.8045 66.7754 43.9284 67.038 44.0225C67.3007 44.1167 67.5832 44.1911 67.8806 44.2505C68.178 44.31 68.4506 44.3744 68.6984 44.4438C69.6351 44.7462 70.4925 45.0733 71.2707 45.4252C72.0488 45.7771 72.7278 46.2132 73.2978 46.7287C73.8677 47.2441 74.3138 47.8587 74.631 48.5773C74.9482 49.296 75.1068 50.1683 75.1068 51.1992C75.1068 52.2301 74.8986 53.1519 74.4922 53.9598C74.0809 54.7726 73.5158 55.4516 72.7972 56.0018C72.0785 56.5519 71.231 56.9732 70.2447 57.2656C69.2634 57.558 68.2028 57.7018 67.0678 57.7018C66.4235 57.7018 65.7692 57.6472 65.1001 57.5283C64.436 57.4143 63.7867 57.2309 63.1672 56.9732C62.5427 56.7204 61.948 56.3933 61.3879 55.9919C60.8279 55.5904 60.3273 55.1047 59.8911 54.5347C59.7772 54.391 59.6929 54.2373 59.6334 54.0738C59.5789 53.9102 59.5492 53.7516 59.5541 53.598C59.5591 53.4394 59.5888 53.3006 59.6483 53.1668C59.7078 53.0379 59.797 52.9239 59.9209 52.8298L61.9331 50.8175C62.1809 50.6094 62.404 50.535 62.5973 50.5995C62.8104 50.6639 63.0582 50.8423 63.3605 51.1347Z" fill="#D17818"/>
<path d="M76.9356 38.9771C76.7671 38.5608 76.7671 38.204 76.9257 37.9066C77.0843 37.6092 77.4412 37.4605 77.9963 37.4605H81.8522C82.1099 37.4605 82.328 37.5398 82.4916 37.7034C82.6601 37.8669 82.784 38.0652 82.8683 38.3031L87.2843 50.8671L91.6061 38.3031C91.7201 37.971 91.8638 37.748 92.0422 37.634C92.2207 37.52 92.4635 37.4605 92.7758 37.4605H96.7854C97.0778 37.4605 97.3058 37.5002 97.4743 37.5795C97.6428 37.6588 97.7568 37.7628 97.8262 37.8917C97.8956 38.0206 97.9154 38.1693 97.8956 38.3279C97.8757 38.4914 97.8311 38.65 97.7717 38.8037C97.3752 39.78 96.944 40.8506 96.4781 42.0103C96.0072 43.1701 95.5215 44.3745 95.016 45.6284C94.5105 46.8823 94 48.1561 93.4796 49.4496C92.9591 50.7432 92.4536 52.017 91.958 53.266C91.4624 54.5149 90.9866 55.7143 90.5306 56.8642C90.0746 58.014 89.6533 59.0697 89.2717 60.0312C88.8901 60.9927 88.563 61.8402 88.2805 62.5688C87.998 63.2974 87.7848 63.8574 87.6411 64.2539L87.6857 64.1746C87.6114 64.4571 87.4825 64.6802 87.2942 64.8536C87.1058 65.0271 86.8778 65.1114 86.6053 65.1114H83.0021C82.5362 65.1114 82.214 65.0221 82.0406 64.8388C81.8671 64.6554 81.7828 64.3878 81.7828 64.0359C81.7828 63.902 81.8027 63.798 81.8374 63.7236C81.872 63.6493 81.9018 63.6047 81.9216 63.5848L84.37 57.2161L76.9356 38.9771Z" fill="#D17818"/>
<path d="M10.1702 57.6225H0V50.3567H10.1702V57.6225ZM10.1702 99.7605H0V61.984H10.1702V99.7605Z" fill="#2385A9"/>
<path d="M31.9628 75.5839V99.7604H21.7926V61.984H31.9628V62.4499C34.5946 61.1712 37.5039 60.5318 40.6808 60.5318C46.2962 60.5318 51.0939 62.5193 55.0638 66.4892C59.0338 70.4591 61.0212 75.2568 61.0212 80.8722V99.7604H50.851V80.8722C50.851 78.0422 49.8548 75.6434 47.8575 73.6658C45.8601 71.6883 43.4712 70.702 40.6808 70.702C37.8508 70.702 35.452 71.6883 33.4745 73.6658C32.8946 74.2457 32.389 74.8851 31.9628 75.5839Z" fill="#2385A9"/>
<path d="M77.352 61.984L84.8508 82.7308L92.4041 61.984H103.214L89.4403 99.7604H80.3159L66.5425 61.984H77.352Z" fill="#2385A9"/>
<path d="M120.59 57.6225H110.42V50.3567H120.59V57.6225ZM120.59 99.7605H110.42V61.984H120.59V99.7605Z" fill="#2385A9"/>
<path d="M142.388 72.1542V99.7604H132.218V51.8138H142.388V61.984H149.654V72.1542H142.388Z" fill="#2385A9"/>
<path d="M170.227 90.6955C171.04 90.9284 171.912 91.0424 172.844 91.0424C175.674 91.0424 178.073 90.0363 180.05 88.0191C180.556 87.5185 181.002 86.9733 181.388 86.3934L189.933 91.9147C189.194 93.0794 188.307 94.1797 187.261 95.2255C183.272 99.2152 178.464 101.213 172.849 101.213C167.233 101.213 162.436 99.2251 158.466 95.2552C154.496 91.2852 152.508 86.4876 152.508 80.8722C152.508 75.2568 154.496 70.4591 158.466 66.4892C162.436 62.5193 167.233 60.5318 172.849 60.5318C178.464 60.5318 183.272 62.5093 187.261 66.4595C188.5 67.7382 189.566 69.0962 190.458 70.5285L170.227 90.6955ZM175.515 70.9895C174.663 70.7962 173.771 70.697 172.844 70.697C170.053 70.697 167.66 71.6833 165.667 73.6609C163.67 75.6384 162.674 78.0372 162.674 80.8672C162.674 81.799 162.788 82.6664 163.02 83.4841L175.515 70.9895Z" fill="#2385A9"/>
<path d="M150.457 18.0271V21.9079C150.432 22.0218 150.407 22.1408 150.392 22.2548C149.782 27.1615 147.691 31.3247 144.048 34.6603C140.227 38.1594 135.697 39.9486 130.493 39.9139C126.339 39.8891 122.191 39.8544 118.038 39.8048C117.562 39.7999 117.27 39.9486 116.982 40.3351C114.905 43.1602 112.165 44.989 108.73 45.7622C106.658 46.2281 104.562 45.9853 102.475 46.0398C102.396 46.0398 102.287 46.0497 102.252 45.9555C102.198 45.8167 102.322 45.7374 102.401 45.6581C103.144 44.9098 103.893 44.1663 104.636 43.4179C105.994 42.045 106.837 40.4095 107.179 38.5113C107.238 38.1792 107.149 37.9908 106.866 37.857C106.728 37.7926 106.599 37.7034 106.47 37.629C98.8224 33.1783 95.8338 23.3699 99.9078 15.5143C103.055 9.44292 108.16 6.29075 115.049 6.14702C115.505 6.13711 115.912 6.15197 116.313 5.78026C121.145 1.22547 126.89 -0.737195 133.447 0.249096C140.906 1.37416 146.075 5.6167 149.079 12.5108C149.837 14.2653 150.209 16.1338 150.457 18.0271Z" fill="#2385A9"/>
</svg>
