<svg width="413" height="89" viewBox="0 0 413 89" fill="none" xmlns="http://www.w3.org/2000/svg">
<path d="M31.9132 69.4026C30.2183 70.9615 28.3081 72.1818 26.1881 73.058C24.0681 73.9342 21.8243 74.3697 19.4514 74.3697C16.8095 74.3697 14.3182 73.8912 11.9668 72.9236C9.6154 71.9614 7.55457 70.6282 5.77893 68.9242C4.00866 67.2201 2.5989 65.215 1.56042 62.9034C0.521932 60.5919 0 58.0815 0 55.3668C0 53.6735 0.204467 52.0339 0.618785 50.4427C1.0331 48.8569 1.6196 47.3679 2.38367 45.981C3.14236 44.5941 4.06785 43.3201 5.16014 42.1535C6.24705 40.987 7.46848 39.9925 8.81367 39.1647C10.1642 38.3369 11.6278 37.6918 13.2097 37.2295C14.7917 36.7672 16.4543 36.536 18.2085 36.536C19.8065 36.536 21.3562 36.7457 22.8628 37.1703C24.364 37.595 25.7792 38.1917 27.0975 38.9604C28.4157 39.7291 29.6264 40.6537 30.7241 41.7342C31.8218 42.8147 32.7688 43.992 33.5544 45.2714C34.3453 46.5508 34.9587 47.9162 35.3892 49.373C35.8197 50.8244 36.0403 52.3242 36.0403 53.8617C36.0403 54.8615 36.0241 55.6786 35.9972 56.3183C35.9703 56.9526 35.8197 57.4579 35.5506 57.8342C35.2816 58.2105 34.835 58.4686 34.2054 58.6137C33.5813 58.7588 32.6612 58.8287 31.4451 58.8287H10.6431C10.8368 60.0597 11.2242 61.0919 11.8107 61.9197C12.3973 62.7476 13.0806 63.4088 13.8501 63.8979C14.6195 64.3871 15.4374 64.7419 16.3091 64.9516C17.1754 65.1612 17.9932 65.2687 18.7681 65.2687C19.4622 65.2687 20.1724 65.1988 20.9096 65.0537C21.6414 64.9086 22.3516 64.715 23.035 64.4785C23.7184 64.2366 24.3425 63.9571 24.9129 63.6399C25.4832 63.3228 25.9406 62.9895 26.285 62.6454C26.5917 62.3981 26.8607 62.2046 27.0813 62.081C27.3019 61.9573 27.5387 61.8928 27.7916 61.8928C28.0445 61.8928 28.2974 61.9788 28.5556 62.1509C28.8139 62.3229 29.1099 62.5755 29.4381 62.9034L32.4997 66.3707C32.7096 66.618 32.8441 66.8492 32.9033 67.0481C32.9625 67.2523 32.9894 67.4566 32.9894 67.6663C32.9894 68.0533 32.8818 68.3866 32.6719 68.6608C32.4513 68.9457 32.2038 69.1929 31.9132 69.4026ZM18.0094 45.352C17.2561 45.352 16.5297 45.5026 15.8248 45.7982C15.1199 46.0993 14.4635 46.497 13.8447 46.997C13.2259 47.4969 12.6717 48.0667 12.182 48.7011C11.6924 49.3354 11.2888 49.9805 10.9821 50.6363H25.7523C25.3487 49.8837 24.9075 49.1902 24.434 48.5559C23.9605 47.9216 23.4224 47.3625 22.8144 46.8787C22.2064 46.4003 21.5122 46.024 20.732 45.7552C19.9626 45.4864 19.0532 45.352 18.0094 45.352Z" fill="#CD792A"/>
<path d="M79.8611 71.6549C79.8611 71.9828 79.8019 72.2946 79.6889 72.5957C79.5759 72.8967 79.3822 73.1279 79.1132 73.3053C78.9033 73.5149 78.6504 73.6493 78.3599 73.7084C78.0693 73.7676 77.8218 73.7944 77.6066 73.7944H71.9137C71.5102 73.7944 71.1819 73.7407 70.929 73.6332C70.6761 73.5257 70.4771 73.3805 70.321 73.187C70.165 72.9935 70.0358 72.757 69.9282 72.4774C69.8206 72.1979 69.713 71.8969 69.5946 71.5689L69.218 70.268C68.696 70.7895 68.1042 71.2948 67.4423 71.8001C66.7751 72.3 66.0433 72.7462 65.247 73.144C64.4452 73.5364 63.5897 73.8536 62.675 74.0955C61.7603 74.3374 60.8132 74.4556 59.8286 74.4556C58.0744 74.4556 56.3903 74.2352 54.7814 73.7891C53.1726 73.3483 51.6713 72.7139 50.2723 71.8968C48.8734 71.0797 47.6089 70.096 46.4735 68.951C45.3382 67.806 44.3589 66.532 43.541 65.1236C42.7232 63.7205 42.0936 62.2046 41.647 60.5758C41.2058 58.947 40.9798 57.2483 40.9798 55.4797C40.9798 52.8026 41.4694 50.3137 42.4541 48.0183C43.4388 45.7229 44.7786 43.7178 46.4735 42.0138C48.1685 40.3097 50.1647 38.9712 52.4569 37.9982C54.7491 37.0252 57.2081 36.5414 59.8286 36.5414C61.0231 36.5414 62.1369 36.6758 63.1646 36.9446C64.1924 37.2133 65.1394 37.5789 65.9949 38.0412C66.8504 38.5035 67.6253 39.0572 68.3194 39.7023C69.0135 40.3473 69.6215 41.0461 70.1381 41.7934L70.9775 39.1647C71.1712 38.6863 71.3272 38.2938 71.4564 37.9928C71.5801 37.6918 71.7146 37.4714 71.8599 37.3262C72.0052 37.1811 72.1828 37.0843 72.3926 37.0359C72.6025 36.9875 72.9038 36.966 73.2912 36.966H77.5958C77.8056 36.966 78.0585 36.9929 78.3491 37.0521C78.6397 37.1112 78.8872 37.2456 79.1024 37.4552C79.3714 37.6649 79.5652 37.9068 79.6781 38.1756C79.7911 38.4443 79.8503 38.7561 79.8503 39.1002V71.6549H79.8611ZM51.3915 55.4851C51.3915 56.7537 51.5906 57.9471 51.9834 59.0491C52.3762 60.1565 52.9412 61.1133 53.673 61.9251C54.4048 62.7314 55.2872 63.3711 56.3203 63.8442C57.3534 64.3172 58.4941 64.5537 59.7478 64.5537C61.0392 64.5537 62.2391 64.3172 63.3476 63.8442C64.456 63.3711 65.4192 62.7314 66.237 61.9251C67.0549 61.1187 67.6952 60.1619 68.158 59.0491C68.6207 57.9417 68.8521 56.7537 68.8521 55.4851C68.8521 54.2541 68.6207 53.0768 68.158 51.964C67.6952 50.8459 67.0549 49.8675 66.237 49.0182C65.4192 48.1742 64.456 47.5023 63.3476 47.0131C62.2391 46.5239 61.0392 46.2766 59.7478 46.2766C58.4941 46.2766 57.3534 46.5239 56.3203 47.0131C55.2926 47.5023 54.4101 48.1742 53.673 49.0182C52.9412 49.8675 52.3762 50.8459 51.9834 51.964C51.5906 53.0768 51.3915 54.2541 51.3915 55.4851Z" fill="#CD792A"/>
<path d="M92.2906 62.3873C92.8126 62.9088 93.3722 63.3442 93.9802 63.699C94.5882 64.0538 95.1693 64.3441 95.7289 64.5645C96.2885 64.7849 96.7782 64.9461 97.2033 65.0429C97.6283 65.1397 97.9135 65.188 98.0696 65.188C98.4355 65.188 98.9036 65.1719 99.4739 65.145C100.039 65.1182 100.588 65.0268 101.104 64.887C101.626 64.7419 102.073 64.5053 102.45 64.1774C102.826 63.8495 103.014 63.3872 103.014 62.7905C103.014 62.2529 102.907 61.8229 102.697 61.5057C102.487 61.1886 102.175 60.9198 101.772 60.6994C101.368 60.479 100.873 60.2801 100.281 60.1081C99.6946 59.9361 99.0327 59.7318 98.3009 59.5006C95.9872 58.8824 94.0824 58.1406 92.5812 57.2751C91.08 56.4096 89.8854 55.442 89.0138 54.3723C88.1367 53.3025 87.5233 52.1522 87.1789 50.9211C86.8346 49.6901 86.657 48.3892 86.657 47.0238C86.657 45.4273 86.9745 43.9705 87.6094 42.6642C88.2443 41.3579 89.1537 40.2344 90.3267 39.299C91.4997 38.3637 92.9094 37.6434 94.5452 37.1327C96.1809 36.622 98.005 36.3693 100.007 36.3693C101.223 36.3693 102.358 36.4715 103.418 36.6704C104.478 36.8746 105.49 37.1918 106.453 37.6218C107.416 38.0519 108.358 38.611 109.272 39.299C110.187 39.9817 111.096 40.7935 112.006 41.7396C112.334 42.1212 112.501 42.4868 112.512 42.8201C112.522 43.1587 112.302 43.5189 111.86 43.9006C111.107 44.5188 110.391 45.1262 109.708 45.7229C109.025 46.3196 108.315 46.9808 107.583 47.7173C107.351 47.9108 107.12 48.029 106.889 48.0774C106.657 48.1258 106.437 48.1204 106.221 48.0667C106.012 48.0076 105.807 47.9108 105.613 47.7764C105.42 47.642 105.247 47.4807 105.091 47.2872C104.419 46.5346 103.644 46.0293 102.778 45.7713C101.911 45.5133 101.099 45.3789 100.351 45.3789C99.4094 45.3789 98.6561 45.5401 98.0965 45.8681C97.5369 46.196 97.2786 46.6959 97.3163 47.3678C97.3539 47.8678 97.5423 48.2602 97.8812 48.5344C98.2202 48.8139 98.6346 49.0397 99.1242 49.2117C99.6138 49.3837 100.136 49.5235 100.685 49.631C101.233 49.7385 101.739 49.8568 102.202 49.9912C103.935 50.5502 105.527 51.1577 106.969 51.8081C108.417 52.4639 109.665 53.2649 110.725 54.2164C111.785 55.1679 112.608 56.3075 113.195 57.6407C113.781 58.9684 114.077 60.5865 114.077 62.4895C114.077 64.3978 113.695 66.0965 112.937 67.6017C112.178 69.1015 111.129 70.3648 109.8 71.3861C108.471 72.4075 106.894 73.187 105.075 73.7245C103.251 74.2621 101.293 74.5309 99.1941 74.5309C97.9996 74.5309 96.7836 74.4234 95.5514 74.2137C94.3192 74.0041 93.1247 73.66 91.9678 73.187C90.8109 72.7139 89.7133 72.1118 88.6748 71.37C87.6363 70.6282 86.7108 69.7304 85.8983 68.6714C85.6885 68.4027 85.527 68.1178 85.4194 67.8221C85.3118 67.5211 85.2634 67.2308 85.2741 66.9405C85.2849 66.6502 85.3387 66.3868 85.4463 66.1449C85.5539 65.903 85.7207 65.6987 85.9521 65.5213L89.681 61.796C90.1437 61.409 90.5527 61.2746 90.9078 61.3928C91.2737 61.5219 91.731 61.8498 92.2906 62.3873Z" fill="#CD792A"/>
<path d="M117.435 39.8904C117.128 39.1217 117.123 38.4605 117.419 37.9122C117.72 37.3639 118.377 37.0897 119.399 37.0897H126.539C127.018 37.0897 127.416 37.2402 127.723 37.5359C128.03 37.8369 128.261 38.2025 128.417 38.6486L136.596 61.8928L144.602 38.6486C144.812 38.0305 145.081 37.6165 145.409 37.4069C145.738 37.1972 146.19 37.0897 146.765 37.0897H154.196C154.734 37.0897 155.159 37.1596 155.471 37.3047C155.778 37.4499 155.993 37.6434 156.122 37.8799C156.246 38.1218 156.289 38.3906 156.252 38.6863C156.214 38.9873 156.133 39.2776 156.02 39.5679C155.288 41.3795 154.487 43.3577 153.62 45.5026C152.754 47.6474 151.85 49.8837 150.919 52.2006C149.983 54.5229 149.036 56.8774 148.073 59.2749C147.11 61.6724 146.168 64.0216 145.253 66.3331C144.339 68.6446 143.456 70.8594 142.606 72.9881C141.756 75.1168 140.981 77.0682 140.282 78.8475C139.577 80.6269 138.969 82.1912 138.447 83.5404C137.925 84.8843 137.532 85.9272 137.263 86.6583L137.349 86.5132C137.215 87.0346 136.972 87.4539 136.628 87.7711C136.284 88.0882 135.859 88.2495 135.358 88.2495H128.681C127.814 88.2495 127.222 88.0775 126.905 87.7442C126.588 87.4055 126.426 86.911 126.426 86.2551C126.426 86.0025 126.458 85.8143 126.528 85.68C126.598 85.5456 126.647 85.4595 126.69 85.4219L131.226 73.6385L117.435 39.8904Z" fill="#CD792A"/>
<path d="M172.577 31.6119H162.472V24.4032H172.577V31.6119ZM172.577 73.4343H162.472V35.9393H172.577V73.4343Z" fill="#2886A6"/>
<path d="M194.229 49.4375V73.4343H184.124V35.9393H194.229V36.4016C196.849 35.133 199.733 34.4987 202.892 34.4987C208.472 34.4987 213.239 36.4715 217.183 40.4118C221.127 44.3522 223.102 49.115 223.102 54.6895V73.4397H212.997V54.6895C212.997 51.8834 212.007 49.4966 210.021 47.5345C208.036 45.5724 205.663 44.5941 202.892 44.5941C200.083 44.5941 197.694 45.5724 195.73 47.5345C195.154 48.1097 194.654 48.7441 194.229 49.4375Z" fill="#2886A6"/>
<path d="M239.325 35.9393L246.772 56.5333L254.278 35.9393H265.018L251.335 73.4343H242.268L228.585 35.9393H239.325Z" fill="#2886A6"/>
<path d="M282.285 31.6119H272.18V24.4032H282.285V31.6119ZM282.285 73.4343H272.18V35.9393H282.285V73.4343Z" fill="#2886A6"/>
<path d="M303.937 46.0347V73.4343H293.832V25.8439H303.937V35.9393H311.158V46.0347H303.937Z" fill="#2886A6"/>
<path d="M331.6 64.4355C332.407 64.6666 333.273 64.7795 334.198 64.7795C337.007 64.7795 339.396 63.7797 341.36 61.7799C341.861 61.28 342.302 60.7424 342.689 60.1673L351.18 65.6504C350.448 66.8062 349.56 67.9028 348.522 68.9403C344.556 72.9021 339.784 74.8803 334.204 74.8803C328.624 74.8803 323.857 72.9075 319.913 68.9671C315.968 65.0268 313.994 60.264 313.994 54.6895C313.994 49.115 315.963 44.3522 319.913 40.4118C323.857 36.4715 328.624 34.4987 334.204 34.4987C339.784 34.4987 344.556 36.4608 348.522 40.385C349.754 41.6536 350.814 43.0029 351.697 44.4221L331.6 64.4355ZM336.851 44.879C336.006 44.6855 335.119 44.5887 334.193 44.5887C331.422 44.5887 329.044 45.5671 327.064 47.5292C325.078 49.4913 324.088 51.8781 324.088 54.6841C324.088 55.6087 324.201 56.4742 324.432 57.2805L336.851 44.879Z" fill="#2886A6"/>
<path d="M412.709 19.9791V24.2796C412.687 24.4086 412.655 24.5376 412.639 24.6666C411.977 30.1014 409.723 34.7137 405.789 38.4067C401.662 42.2825 396.777 44.2608 391.154 44.2285C386.671 44.2016 382.189 44.1586 377.707 44.1049C377.196 44.0995 376.873 44.2608 376.566 44.6908C374.323 47.8194 371.363 49.846 367.656 50.7008C365.418 51.2168 363.158 50.9427 360.903 51.0072C360.817 51.0072 360.704 51.0179 360.666 50.9158C360.607 50.7599 360.742 50.6739 360.828 50.5879C361.629 49.7547 362.437 48.9322 363.238 48.1043C364.707 46.5884 365.611 44.7768 365.982 42.6696C366.047 42.2987 365.95 42.0944 365.644 41.9439C365.493 41.8686 365.358 41.7772 365.213 41.6912C356.954 36.7564 353.731 25.8923 358.127 17.1945C361.527 10.4696 367.032 6.97546 374.468 6.81419C374.958 6.80344 375.399 6.81957 375.829 6.40565C381.043 1.35794 387.247 -0.819196 394.328 0.27743C402.378 1.52457 407.963 6.22288 411.202 13.8616C412.036 15.813 412.44 17.8826 412.709 19.9791Z" fill="#2886A6"/>
</svg>
